<svg width="20" height="16" viewBox="0 0 20 16" fill="none" xmlns="http://www.w3.org/2000/svg">
<path d="M4.5 6C5.3 6 6 5.3 6 4.5C6 3.7 5.3 3 4.5 3C3.7 3 3 3.7 3 4.5C3 5.3 3.7 6 4.5 6ZM7 2L14 9L9 14L2 7V2H7ZM7 0H2C0.9 0 0 0.9 0 2V7C0 7.6 0.2 8.1 0.6 8.4L7.6 15.4C7.9 15.8 8.4 16 9 16C9.6 16 10.1 15.8 10.4 15.4L15.4 10.4C15.8 10 16 9.5 16 9C16 8.4 15.8 7.9 15.4 7.6L8.4 0.6C8.1 0.2 7.6 0 7 0ZM11.5 1.7L12.5 0.7L19.4 7.6C19.8 8 20 8.5 20 9C20 9.5 19.8 10.1 19.4 10.4L14 15.8L13 14.8L18.7 9L11.5 1.7Z" fill="#49454F"/>
</svg>
